<svg>
    <defs>
        <g id="add">
            <path d="M19 13h-6v6h-2v-6H5v-2h6V5h2v6h6v2z" fill="#FFFFFF"/>
            <path d="M0 0h24v24H0z" fill="none"/>
        </g>
        <g id="edit">
            <path d="M3 17.25V21h3.75L17.81 9.94l-3.75-3.75L3 17.25zM20.71 7.04c.39-.39.39-1.02 0-1.41l-2.34-2.34c-.39-.39-1.02-.39-1.41 0l-1.83 1.83 3.75 3.75 1.83-1.83z"
                  fill="#FFFFFF"/>
            <path d="M0 0h24v24H0z" fill="none"/>
        </g>
        <g id="filter">
            <path d="M10 18h4v-2h-4v2zM3 6v2h18V6H3zm3 7h12v-2H6v2z"/>
            <path d="M0 0h24v24H0z" fill="none"/>
        </g>
        <g id="pageAction">
            <path d="M0 0h24v24H0z" fill="none"/>
            <path d="M14 2H6c-1.1 0-1.99.9-1.99 2L4 20c0 1.1.89 2 1.99 2H18c1.1 0 2-.9 2-2V8l-6-6zm2 16H8v-2h8v2zm0-4H8v-2h8v2zm-3-5V3.5L18.5 9H13z"
                  fill="#757575"/>
        </g>
        <g id="linkAction">
            <path d="M0 0h24v24H0z" fill="none"/>
            <path d="M3.9 12c0-1.71 1.39-3.1 3.1-3.1h4V7H7c-2.76 0-5 2.24-5 5s2.24 5 5 5h4v-1.9H7c-1.71 0-3.1-1.39-3.1-3.1zM8 13h8v-2H8v2zm9-6h-4v1.9h4c1.71 0 3.1 1.39 3.1 3.1s-1.39 3.1-3.1 3.1h-4V17h4c2.76 0 5-2.24 5-5s-2.24-5-5-5z"
                  fill="#757575"/>
        </g>
    </defs>
</svg>