<svg>
    <defs>
        <g id="home">
            <path d="M10 20v-6h4v6h5v-8h3L12 3 2 12h3v8z"/>
            <path d="M0 0h24v24H0z" fill="none"/>
        </g>
        <g id="contact">
            <path d="M0 0h24v24H0z" fill="none"/>
            <path d="M16 11c1.66 0 2.99-1.34 2.99-3S17.66 5 16 5c-1.66 0-3 1.34-3 3s1.34 3 3 3zm-8 0c1.66 0 2.99-1.34 2.99-3S9.66 5 8 5C6.34 5 5 6.34 5 8s1.34 3 3 3zm0 2c-2.33 0-7 1.17-7 3.5V19h14v-2.5c0-2.33-4.67-3.5-7-3.5zm8 0c-.29 0-.62.02-.97.05 1.16.84 1.97 1.97 1.97 3.45V19h6v-2.5c0-2.33-4.67-3.5-7-3.5z"/>
        </g>
        <g id="chat">
            <path d="M20 2H4c-1.1 0-1.99.9-1.99 2L2 22l4-4h14c1.1 0 2-.9 2-2V4c0-1.1-.9-2-2-2zM6 9h12v2H6V9zm8 5H6v-2h8v2zm4-6H6V6h12v2z"
                  fill="#FFFFFF"/>
            <path d="M0 0h24v24H0z" fill="none"/>
        </g>
        <g id="thread">
            <path d="M20 2H4c-1.1 0-1.99.9-1.99 2L2 22l4-4h14c1.1 0 2-.9 2-2V4c0-1.1-.9-2-2-2zm-2 12H6v-2h12v2zm0-3H6V9h12v2zm0-3H6V6h12v2z"/>
            <path d="M0 0h24v24H0z" fill="none"/>
        </g>
        <g id="forum">
            <path d="M0 0h24v24H0z" fill="none"/>
            <path d="M21 6h-2v9H6v2c0 .55.45 1 1 1h11l4 4V7c0-.55-.45-1-1-1zm-4 6V3c0-.55-.45-1-1-1H3c-.55 0-1 .45-1 1v14l4-4h10c.55 0 1-.45 1-1z"/>
        </g>
        <g id="recommendation">
            <path d="M0 0h24v24H0z" fill="none"/>
            <path d="M1 21h4V9H1v12zm22-11c0-1.1-.9-2-2-2h-6.31l.95-4.57.03-.32c0-.41-.17-.79-.44-1.06L14.17 1 7.59 7.59C7.22 7.95 7 8.45 7 9v10c0 1.1.9 2 2 2h9c.83 0 1.54-.5 1.84-1.22l3.02-7.05c.09-.23.14-.47.14-.73v-1.91l-.01-.01L23 10z"/>
        </g>
        <g id="map">
            <path fill="#757575"
                  d="M5,4A2,2 0 0,0 3,6V16.29L11.18,8.11C11.06,7.59 11,7.07 11,6.53C11,5.62 11.2,4.76 11.59,4H5M18,21A2,2 0 0,0 20,19V11.86C19.24,13 18.31,14.21 17.29,15.5L16.5,16.5L15.72,15.5C14.39,13.85 13.22,12.32 12.39,10.91C12.05,10.33 11.76,9.76 11.53,9.18L7.46,13.25L15.21,21H18M3,19A2,2 0 0,0 5,21H13.79L6.75,13.96L3,17.71V19M16.5,15C19.11,11.63 21,9.1 21,6.57C21,4.05 19,2 16.5,2C14,2 12,4.05 12,6.57C12,9.1 13.87,11.63 16.5,15M18.5,6.5A2,2 0 0,1 16.5,8.5A2,2 0 0,1 14.5,6.5A2,2 0 0,1 16.5,4.5A2,2 0 0,1 18.5,6.5Z"/>
        </g>
        <g id="feedback">
            <path d="M19,8L15,12H18A6,6 0 0,1 12,18C11,18 10.03,17.75 9.2,17.3L7.74,18.76C8.97,19.54 10.43,20 12,20A8,8 0 0,0 20,12H23M6,12A6,6 0 0,1 12,6C13,6 13.97,6.25 14.8,6.7L16.26,5.24C15.03,4.46 13.57,4 12,4A8,8 0 0,0 4,12H1L5,16L9,12" />
        </g>
        <g id="info">
            <path d="M11,9H13V7H11M12,20C7.59,20 4,16.41 4,12C4,7.59 7.59,4 12,4C16.41,4 20,7.59 20,12C20,16.41 16.41,20 12,20M12,2A10,10 0 0,0 2,12A10,10 0 0,0 12,22A10,10 0 0,0 22,12A10,10 0 0,0 12,2M11,17H13V11H11V17Z" />
        </g>
        <g id="contacting">
            <path d="M0 0h24v24H0z" fill="none"/>
            <path d="M8 10H5V7H3v3H0v2h3v3h2v-3h3v-2zm10 1c1.66 0 2.99-1.34 2.99-3S19.66 5 18 5c-.32 0-.63.05-.91.14.57.81.9 1.79.9 2.86s-.34 2.04-.9 2.86c.28.09.59.14.91.14zm-5 0c1.66 0 2.99-1.34 2.99-3S14.66 5 13 5c-1.66 0-3 1.34-3 3s1.34 3 3 3zm6.62 2.16c.83.73 1.38 1.66 1.38 2.84v2h3v-2c0-1.54-2.37-2.49-4.38-2.84zM13 13c-2 0-6 1-6 3v2h12v-2c0-2-4-3-6-3z"
                  fill="#FFFFFF"/>
        </g>
        <g id="profile">
            <path d="M12 2C6.48 2 2 6.48 2 12s4.48 10 10 10 10-4.48 10-10S17.52 2 12 2zm0 3c1.66 0 3 1.34 3 3s-1.34 3-3 3-3-1.34-3-3 1.34-3 3-3zm0 14.2c-2.5 0-4.71-1.28-6-3.22.03-1.99 4-3.08 6-3.08 1.99 0 5.97 1.09 6 3.08-1.29 1.94-3.5 3.22-6 3.22z"
                  fill="#757575"/>
            <path d="M0 0h24v24H0z" fill="none"/>
        </g>
        <g id="add">
            <path d="M0 0h24v24H0z" fill="none"/>
            <path d="M12 2C6.48 2 2 6.48 2 12s4.48 10 10 10 10-4.48 10-10S17.52 2 12 2zm5 11h-4v4h-2v-4H7v-2h4V7h2v4h4v2z"/>
        </g>
        <g id="security">
            <path d="M12 1L3 5v6c0 5.55 3.84 10.74 9 12 5.16-1.26 9-6.45 9-12V5l-9-4zm0 10.99h7c-.53 4.12-3.28 7.79-7 8.94V12H5V6.3l7-3.11v8.8z"
                  fill="#FFFFFF"/>
            <path d="M0 0h24v24H0z" fill="none"/>
        </g>
        <g id="pageEdit">
            <path d="M8.602,13.279l-1.466,5.119l5.12-1.465l9.878-9.877L18.48,3.401L8.602,13.279z M18.979,5.632  c0.216,0.217,0.216,0.571,0,0.787l-7.723,7.722c-0.217,0.217-0.57,0.217-0.786,0c-0.217-0.217-0.217-0.57,0-0.787l7.722-7.722  C18.409,5.416,18.763,5.416,18.979,5.632z M25.526,3.645L23.11,6.062l-3.646-3.645L21.882,0L25.526,3.645z M15.471,15.984  l1.813-1.812v7.539H0V4.657l5.122-4.35h12.163v2.288l-1.813,1.844V1.838H7.065v4.487H1.812v13.856h13.659V15.984z"
                  fill="#FFFFFF"/>
        </g>
        <g id="pageMyRecommendation">
            <path d="M12 6c0-.55-.45-1-1-1H5.82l.66-3.18.02-.23c0-.31-.13-.59-.33-.8L5.38 0 .44 4.94C.17 5.21 0 5.59 0 6v6.5c0 .83.67 1.5 1.5 1.5h6.75c.62 0 1.15-.38 1.38-.91l2.26-5.29c.07-.17.11-.36.11-.55V6zm10.5 4h-6.75c-.62 0-1.15.38-1.38.91l-2.26 5.29c-.07.17-.11.36-.11.55V18c0 .55.45 1 1 1h5.18l-.66 3.18-.02.24c0 .31.13.59.33.8l.79.78 4.94-4.94c.27-.27.44-.65.44-1.06v-6.5c0-.83-.67-1.5-1.5-1.5z"
                  fill="#FFFFFF"/>
            <path d="M0 0h24v24H0z" fill="none"/>
        </g>
        <g id="myPage">
            <path d="M0 0h24v24H0z" fill="none"/>
            <path d="M4 6H2v14c0 1.1.9 2 2 2h14v-2H4V6zm16-4H8c-1.1 0-2 .9-2 2v12c0 1.1.9 2 2 2h12c1.1 0 2-.9 2-2V4c0-1.1-.9-2-2-2zm-1 9H9V9h10v2zm-4 4H9v-2h6v2zm4-8H9V5h10v2z"
                  fill="#FFFFFF"/>
        </g>
        <g id="page">
            <path d="M0 0h24v24H0z" fill="none"/>
            <path d="M21 3H3c-1.1 0-2 .9-2 2v12c0 1.1.9 2 2 2h5v2h8v-2h5c1.1 0 1.99-.9 1.99-2L23 5c0-1.1-.9-2-2-2zm0 14H3V5h18v12zm-2-9H8v2h11V8zm0 4H8v2h11v-2zM7 8H5v2h2V8zm0 4H5v2h2v-2z"
                  fill="#FFFFFF"/>
        </g>
        <g id="arrowBack">
            <path d="M15.41 16.09l-4.58-4.59 4.58-4.59L14 5.5l-6 6 6 6z"/>
            <path d="M0-.5h24v24H0z" fill="none"/>
        </g>
        <g id="arrowNext">
            <path d="M8.59 16.34l4.58-4.59-4.58-4.59L10 5.75l6 6-6 6z"/>
            <path d="M0-.25h24v24H0z" fill="none"/>
        </g>
        <g id="settings">
            <path d="M0 0h24v24H0z" fill="none"/>
            <path d="M19.43 12.98c.04-.32.07-.64.07-.98s-.03-.66-.07-.98l2.11-1.65c.19-.15.24-.42.12-.64l-2-3.46c-.12-.22-.39-.3-.61-.22l-2.49 1c-.52-.4-1.08-.73-1.69-.98l-.38-2.65C14.46 2.18 14.25 2 14 2h-4c-.25 0-.46.18-.49.42l-.38 2.65c-.61.25-1.17.59-1.69.98l-2.49-1c-.23-.09-.49 0-.61.22l-2 3.46c-.13.22-.07.49.12.64l2.11 1.65c-.04.32-.07.65-.07.98s.03.66.07.98l-2.11 1.65c-.19.15-.24.42-.12.64l2 3.46c.12.22.39.3.61.22l2.49-1c.52.4 1.08.73 1.69.98l.38 2.65c.03.24.24.42.49.42h4c.25 0 .46-.18.49-.42l.38-2.65c.61-.25 1.17-.59 1.69-.98l2.49 1c.23.09.49 0 .61-.22l2-3.46c.12-.22.07-.49-.12-.64l-2.11-1.65zM12 15.5c-1.93 0-3.5-1.57-3.5-3.5s1.57-3.5 3.5-3.5 3.5 1.57 3.5 3.5-1.57 3.5-3.5 3.5z"
                  fill="#757575"/>
        </g>
        <g id="list">
            <path d="M4 14h4v-4H4v4zm0 5h4v-4H4v4zM4 9h4V5H4v4zm5 5h12v-4H9v4zm0 5h12v-4H9v4zM9 5v4h12V5H9z"/>
            <path d="M0 0h24v24H0z" fill="none"/>
        </g>
        <g id="close">
            <path d="M19 6.41L17.59 5 12 10.59 6.41 5 5 6.41 10.59 12 5 17.59 6.41 19 12 13.41 17.59 19 19 17.59 13.41 12z" fill="#757575"/>
            <path d="M0 0h24v24H0z" fill="none"/>
        </g>
        <g id="problem">
            <path d="M0 0h24v24H0z" fill="none"/>
            <path d="M1 21h22L12 2 1 21zm12-3h-2v-2h2v2zm0-4h-2v-4h2v4z"/>
        </g>
        <g id="blog">
            <path d="M20,2H4A2,2 0 0,0 2,4V22L6,18H20A2,2 0 0,0 22,16V4A2,2 0 0,0 20,2M8,14H6V12H8V14M8,11H6V9H8V11M8,8H6V6H8V8M15,14H10V12H15V14M18,11H10V9H18V11M18,8H10V6H18V8Z"/>
        </g>
        <g id="book">
            <path d="M19,2L14,6.5V17.5L19,13V2M6.5,5C4.55,5 2.45,5.4 1,6.5V21.16C1,21.41 1.25,21.66 1.5,21.66C1.6,21.66 1.65,21.59 1.75,21.59C3.1,20.94 5.05,20.5 6.5,20.5C8.45,20.5 10.55,20.9 12,22C13.35,21.15 15.8,20.5 17.5,20.5C19.15,20.5 20.85,20.81 22.25,21.56C22.35,21.61 22.4,21.59 22.5,21.59C22.75,21.59 23,21.34 23,21.09V6.5C22.4,6.05 21.75,5.75 21,5.5V7.5L21,13V19C19.9,18.65 18.7,18.5 17.5,18.5C15.8,18.5 13.35,19.15 12,20V13L12,8.5V6.5C10.55,5.4 8.45,5 6.5,5V5Z"/>
        </g>
        <g id="video">
            <path d="M10,16.5V7.5L16,12M20,4.4C19.4,4.2 15.7,4 12,4C8.3,4 4.6,4.19 4,4.38C2.44,4.9 2,8.4 2,12C2,15.59 2.44,19.1 4,19.61C4.6,19.81 8.3,20 12,20C15.7,20 19.4,19.81 20,19.61C21.56,19.1 22,15.59 22,12C22,8.4 21.56,4.91 20,4.4Z"/>
        </g>
        <g id="link">
            <path d="M16,6H13V7.9H16C18.26,7.9 20.1,9.73 20.1,12A4.1,4.1 0 0,1 16,16.1H13V18H16A6,6 0 0,0 22,12C22,8.68 19.31,6 16,6M3.9,12C3.9,9.73 5.74,7.9 8,7.9H11V6H8A6,6 0 0,0 2,12A6,6 0 0,0 8,18H11V16.1H8C5.74,16.1 3.9,14.26 3.9,12M8,13H16V11H8V13Z"/>
        </g>
        <g id="generic">
            <path d="M0 0h24v24H0z" fill="none"/>
            <path d="M12 2C6.48 2 2 6.48 2 12s4.48 10 10 10 10-4.48 10-10S17.52 2 12 2zm-1 17.93c-3.95-.49-7-3.85-7-7.93 0-.62.08-1.21.21-1.79L9 15v1c0 1.1.9 2 2 2v1.93zm6.9-2.54c-.26-.81-1-1.39-1.9-1.39h-1v-3c0-.55-.45-1-1-1H8v-2h2c.55 0 1-.45 1-1V7h2c1.1 0 2-.9 2-2v-.41c2.93 1.19 5 4.06 5 7.41 0 2.08-.8 3.97-2.1 5.39z"/>
        </g>
        <g id="health">
            <path d="M7.5,4A5.5,5.5 0 0,0 2,9.5C2,10 2.09,10.5 2.22,11H6.3L7.57,7.63C7.87,6.83 9.05,6.75 9.43,7.63L11.5,13L12.09,11.58C12.22,11.25 12.57,11 13,11H21.78C21.91,10.5 22,10 22,9.5A5.5,5.5 0 0,0 16.5,4C14.64,4 13,4.93 12,6.34C11,4.93 9.36,4 7.5,4V4M3,12.5A1,1 0 0,0 2,13.5A1,1 0 0,0 3,14.5H5.44L11,20C12,20.9 12,20.9 13,20L18.56,14.5H21A1,1 0 0,0 22,13.5A1,1 0 0,0 21,12.5H13.4L12.47,14.8C12.07,15.81 10.92,15.67 10.55,14.83L8.5,9.5L7.54,11.83C7.39,12.21 7.05,12.5 6.6,12.5H3Z" />
        </g>
        <g id="environmental">
            <path d="M0 0h24v24H0z" fill="none"/>
            <path d="M22.17 9.17c0-3.87-3.13-7-7-7s-7 3.13-7 7c0 3.47 2.52 6.34 5.83 6.89V20H6v-3h1v-4c0-.55-.45-1-1-1H3c-.55 0-1 .45-1 1v4h1v5h16v-2h-3v-3.88c3.47-.41 6.17-3.36 6.17-6.95zM4.5 11c.83 0 1.5-.67 1.5-1.5S5.33 8 4.5 8 3 8.67 3 9.5 3.67 11 4.5 11z"/>
        </g>
        <g id="spiritual">
            <path d="M12,2A10,10 0 0,1 22,12A10,10 0 0,1 12,22A10,10 0 0,1 2,12A10,10 0 0,1 12,2M12,4A8,8 0 0,0 4,12A8,8 0 0,0 12,20A4,4 0 0,1 8,16A4,4 0 0,1 12,12A4,4 0 0,0 16,8A4,4 0 0,0 12,4M12,6.5A1.5,1.5 0 0,1 13.5,8A1.5,1.5 0 0,1 12,9.5A1.5,1.5 0 0,1 10.5,8A1.5,1.5 0 0,1 12,6.5M12,14.5A1.5,1.5 0 0,0 10.5,16A1.5,1.5 0 0,0 12,17.5A1.5,1.5 0 0,0 13.5,16A1.5,1.5 0 0,0 12,14.5Z" />
        </g>
        <g id="personalDevelopment">
            <path d="M5,1C5,3.7 6.56,6.16 9,7.32V22H11V15H13V22H15V7.31C17.44,6.16 19,3.7 19,1H17A5,5 0 0,1 12,6A5,5 0 0,1 7,1M12,1C10.89,1 10,1.89 10,3C10,4.11 10.89,5 12,5C13.11,5 14,4.11 14,3C14,1.89 13.11,1 12,1Z" />
        </g>
        <g id="socialDevelopment">
            <path d="M7.5,2A2,2 0 0,1 9.5,4A2,2 0 0,1 7.5,6A2,2 0 0,1 5.5,4A2,2 0 0,1 7.5,2M6,7H9A2,2 0 0,1 11,9V14.5H9.5V22H5.5V14.5H4V9A2,2 0 0,1 6,7M16.5,2A2,2 0 0,1 18.5,4A2,2 0 0,1 16.5,6A2,2 0 0,1 14.5,4A2,2 0 0,1 16.5,2M15,22V16H12L14.59,8.41C14.84,7.59 15.6,7 16.5,7C17.4,7 18.16,7.59 18.41,8.41L21,16H18V22H15Z" />
        </g>
        <g id="education">
            <path d="M0 0h24v24H0z" fill="none"/>
            <path d="M12 11.55C9.64 9.35 6.48 8 3 8v11c3.48 0 6.64 1.35 9 3.55 2.36-2.19 5.52-3.55 9-3.55V8c-3.48 0-6.64 1.35-9 3.55zM12 8c1.66 0 3-1.34 3-3s-1.34-3-3-3-3 1.34-3 3 1.34 3 3 3z"/>
        </g>
        <g id="politics">
            <path d="M21,9A1,1 0 0,1 22,10A1,1 0 0,1 21,11H16.53L16.4,12.21L14.2,17.15C14,17.65 13.47,18 12.86,18H8.5C7.7,18 7,17.27 7,16.5V10C7,9.61 7.16,9.26 7.43,9L11.63,4.1L12.4,4.84C12.6,5.03 12.72,5.29 12.72,5.58L12.69,5.8L11,9H21M2,18V10H5V18H2Z" />
        </g>
        <g id="economy">
            <path d="M12,3C10.73,3 9.6,3.8 9.18,5H3V7H4.95L2,14C1.53,16 3,17 5.5,17C8,17 9.56,16 9,14L6.05,7H9.17C9.5,7.85 10.15,8.5 11,8.83V20H2V22H22V20H13V8.82C13.85,8.5 14.5,7.85 14.82,7H17.95L15,14C14.53,16 16,17 18.5,17C21,17 22.56,16 22,14L19.05,7H21V5H14.83C14.4,3.8 13.27,3 12,3M12,5A1,1 0 0,1 13,6A1,1 0 0,1 12,7A1,1 0 0,1 11,6A1,1 0 0,1 12,5M5.5,10.25L7,14H4L5.5,10.25M18.5,10.25L20,14H17L18.5,10.25Z" />
        </g>
    </defs>
</svg>