<svg><defs>
<g id="person">
    <path d="M12 12c2.21 0 4-1.79 4-4s-1.79-4-4-4-4 1.79-4 4 1.79 4 4 4zm0 2c-2.67 0-8 1.34-8 4v2h16v-2c0-2.66-5.33-4-8-4z"/>
    <path d="M0 0h24v24H0z" fill="none"/>
</g>
<g id="arrowForward">
        <path d="M0 0h24v24H0z" fill="none"/>
        <path d="M12 4l-1.41 1.41L16.17 11H4v2h12.17l-5.58 5.59L12 20l8-8z"/>
</g>
<g id="arrowBack">
    <path d="M0 0h24v24H0z" fill="none"/>
    <path d="M20 11H7.83l5.59-5.59L12 4l-8 8 8 8 1.41-1.41L7.83 13H20v-2z"/>
</g>
</defs></svg>
