<svg>
    <defs>
        <g id="arrowBack">
            <path d="M15.41 16.09l-4.58-4.59 4.58-4.59L14 5.5l-6 6 6 6z"/>
            <path d="M0-.5h24v24H0z" fill="none"/>
        </g>
        <g id="search">
            <path d="M15.5 14h-.79l-.28-.27C15.41 12.59 16 11.11 16 9.5 16 5.91 13.09 3 9.5 3S3 5.91 3 9.5 5.91 16 9.5 16c1.61 0 3.09-.59 4.23-1.57l.27.28v.79l5 4.99L20.49 19l-4.99-5zm-6 0C7.01 14 5 11.99 5 9.5S7.01 5 9.5 5 14 7.01 14 9.5 11.99 14 9.5 14z"
                  />
            <path d="M0 0h24v24H0z" fill="none"/>
        </g>
        <g id="close">
            <path d="M19 6.41L17.59 5 12 10.59 6.41 5 5 6.41 10.59 12 5 17.59 6.41 19 12 13.41 17.59 19 19 17.59 13.41 12z"/>
            <path d="M0 0h24v24H0z" fill="none"/>
        </g>
        <g id="bulb">
            <defs>
                <path d="M0 0h24v24H0V0z" id="a"/>
            </defs>
            <clipPath id="b">
                <use overflow="visible" xlink:href="#a"/>
            </clipPath>
            <path clip-path="url(#b)" d="M9 21c0 .55.45 1 1 1h4c.55 0 1-.45 1-1v-1H9v1zm3-19C8.14 2 5 5.14 5 9c0 2.38 1.19 4.47 3 5.74V17c0 .55.45 1 1 1h6c.55 0 1-.45 1-1v-2.26c1.81-1.27 3-3.36 3-5.74 0-3.86-3.14-7-7-7zm2.85 11.1l-.85.6V16h-4v-2.3l-.85-.6C7.8 12.16 7 10.63 7 9c0-2.76 2.24-5 5-5s5 2.24 5 5c0 1.63-.8 3.16-2.15 4.1z"/>
        </g>
        <g id="comment">
            <path d="M21.99 4c0-1.1-.89-2-1.99-2H4c-1.1 0-2 .9-2 2v12c0 1.1.9 2 2 2h14l4 4-.01-18zM18 14H6v-2h12v2zm0-3H6V9h12v2zm0-3H6V6h12v2z"/>
            <path d="M0 0h24v24H0z" fill="none"/>
        </g>
        <g id="thumbUp">
            <path d="M0 0h24v24H0z" fill="none"/>
            <path d="M1 21h4V9H1v12zm22-11c0-1.1-.9-2-2-2h-6.31l.95-4.57.03-.32c0-.41-.17-.79-.44-1.06L14.17 1 7.59 7.59C7.22 7.95 7 8.45 7 9v10c0 1.1.9 2 2 2h9c.83 0 1.54-.5 1.84-1.22l3.02-7.05c.09-.23.14-.47.14-.73v-1.91l-.01-.01L23 10z"/>
        </g>
        <g id="bug">
            <path d="M0 0h24v24H0z" fill="none"/>
            <path d="M20 8h-2.81c-.45-.78-1.07-1.45-1.82-1.96L17 4.41 15.59 3l-2.17 2.17C12.96 5.06 12.49 5 12 5c-.49 0-.96.06-1.41.17L8.41 3 7 4.41l1.62 1.63C7.88 6.55 7.26 7.22 6.81 8H4v2h2.09c-.05.33-.09.66-.09 1v1H4v2h2v1c0 .34.04.67.09 1H4v2h2.81c1.04 1.79 2.97 3 5.19 3s4.15-1.21 5.19-3H20v-2h-2.09c.05-.33.09-.66.09-1v-1h2v-2h-2v-1c0-.34-.04-.67-.09-1H20V8zm-6 8h-4v-2h4v2zm0-4h-4v-2h4v2z"/>
        </g>
    </defs>
</svg>